<svg xmlns="http://www.w3.org/2000/svg" height="210" width="210"><polyline points="172.18,41.98 172.18,41.98 172.18,41.98 172.18,41.98 172.18,41.98 172.18,41.98 172.18,41.98 172.18,41.98 172.18,41.98 172.18,41.98 172.18,41.98 172.18,41.98 172.18,41.98 172.18,41.98 172.18,41.98 172.18,41.98 172.18,41.98 172.18,41.98 172.18,41.98 172.18,41.98 172.18,41.98 172.18,41.98 172.18,41.98 172.18,41.98 172.18,41.98 172.18,41.98 172.18,41.98 172.18,41.98 172.18,41.98 172.18,41.98 172.18,41.98 172.18,41.98 172.18,41.98 172.18,41.98 172.18,41.98 172.18,41.98 172.18,41.98 172.18,41.98 172.18,41.98 172.18,41.98 172.18,41.98 172.18,41.98 172.18,41.98 172.18,41.98 172.18,41.98 172.18,41.98 172.18,41.98 172.18,41.98 172.18,41.98 172.18,41.98 172.18,41.98 172.18,41.98 172.18,41.98 172.18,41.98 172.18,41.98 172.18,41.98 172.18,41.98 172.18,41.98 172.18,41.98 172.18,41.98 172.18,41.98 172.18,41.98 172.18,41.98 172.18,41.98 172.18,41.98 172.18,41.98 172.18,41.98 172.18,41.98 172.18,41.98 172.18,41.98 172.18,41.98 172.18,41.98 172.18,41.98 172.18,41.98 172.18,41.98 172.18,41.98 172.18,41.98 172.18,41.98 172.18,41.98 172.18,41.98 172.18,41.98 172.18,41.98 172.18,41.98 172.18,41.98 172.18,41.98 172.18,41.98 172.18,41.98 172.18,41.98 172.18,41.98 172.18,41.98 172.18,41.98 172.18,41.98 172.18,41.98 172.18,41.98 172.18,41.98 172.18,41.98 172.18,41.98 172.18,41.98 172.18,41.98 172.18,41.98 172.18,41.98 172.18,41.98 172.18,41.98 172.18,41.98 172.18,41.98 172.18,41.98 172.18,41.98 172.18,41.98 172.18,41.98 172.18,41.98 172.18,41.98 172.18,41.98 172.18,41.98 172.18,41.98 172.18,41.98 172.18,41.98 172.18,41.98 172.18,41.98 172.18,41.98 172.18,41.98 172.18,41.98 172.77,42.88 173.36,43.78 173.94,44.72 174.57,45.80 175.20,46.93 175.81,48.10 176.46,49.46 177.09,50.89 177.73,52.37 178.44,54.08 179.16,55.86 179.91,57.71 180.74,59.74 181.61,61.83 182.50,63.95 183.43,66.11 184.38,68.29 185.35,70.42 186.28,72.43 187.22,74.39 188.17,76.28 189.10,78.02 190.03,79.70 190.95,81.39 191.91,82.96 192.87,84.54 193.80,86.05 194.69,87.45 195.56,88.79 196.35,90.11 197.01,91.27 197.62,92.41 198.16,93.57 198.58,94.60 198.95,95.64 199.26,96.72 199.50,97.80 199.68,98.92 199.83,100.08 199.95,101.36 200.02,102.69 200.04,104.07 200.00,105.70 199.90,107.40 199.75,109.11 199.50,110.96 199.18,112.83 198.86,114.70 198.34,116.68 197.81,118.67 197.20,120.64 196.46,122.73 195.63,124.81 194.73,126.84 193.76,128.83 192.71,130.77 191.65,132.71 190.62,134.56 189.58,136.41 188.57,138.25 187.66,139.97 186.77,141.69 185.94,143.40 185.22,145.02 184.56,146.62 183.92,148.22 183.31,149.85 182.73,151.47 182.16,153.08 181.57,154.76 181.00,156.42 180.42,158.08 179.82,159.70 179.21,161.32 178.58,162.89 177.94,164.35 177.27,165.77 176.54,167.15 175.81,168.42 175.02,169.65 174.19,170.87 173.32,172.03 172.41,173.17 171.46,174.29 170.48,175.37 169.46,176.43 168.41,177.47 167.33,178.49 166.22,179.48 165.09,180.45 163.90,181.42 162.69,182.37 161.45,183.29 160.18,184.17 158.89,185.03 157.60,185.89 156.24,186.71 154.89,187.52 153.52,188.31 152.13,189.05 150.73,189.76 149.31,190.45 147.85,191.13 146.37,191.79 144.88,192.41 143.38,193.01 141.86,193.58 140.33,194.11 138.79,194.61 137.23,195.08 135.65,195.51 134.04,195.92 132.41,196.29 130.75,196.64 129.01,196.98 127.24,197.29 125.44,197.58 123.57,197.85 121.68,198.11 119.78,198.36 117.77,198.56 115.75,198.75 113.72,198.92 111.61,199.05 109.48,199.15 107.36,199.21 105.27,199.24 103.18,199.22 101.10,199.17 99.06,199.09 97.03,198.96 95.00,198.80 92.95,198.60 90.91,198.36 88.87,198.08 86.82,197.77 84.79,197.42 82.77,197.03 80.81,196.60 78.87,196.12 76.94,195.59 75.00,194.99 73.06,194.34 71.13,193.69 69.16,192.90 67.18,192.12 65.22,191.26 63.17,190.30 61.13,189.26 59.12,188.15 57.08,186.95 55.08,185.66 53.11,184.29 51.09,182.76 49.11,181.13 47.18,179.40 45.17,177.46 43.20,175.42 41.30,173.28 39.36,170.92 37.49,168.44 35.71,165.87 33.99,163.11 32.36,160.25 30.79,157.30 29.24,154.21 27.74,151.04 26.24,147.86 24.78,144.42 23.33,140.99 21.95,137.48 20.63,133.77 19.39,129.99 18.28,126.14 17.26,122.16 16.37,118.10 15.69,114.01 15.21,109.82 14.95,105.58 14.91,101.35 15.11,97.17 15.53,93.00 16.15,88.92 16.93,85.09 17.90,81.35 19.04,77.76 20.28,74.55 21.67,71.48 23.14,68.57 24.60,66.10 26.12,63.76 27.65,61.43 29.20,59.57 30.75,57.71 32.31,55.91 33.81,54.28 35.32,52.70 36.85,51.14 38.40,49.61 39.96,48.09 41.52,46.61 42.96,45.25 44.39,43.92 45.84,42.63 47.32,41.38 48.83,40.15 50.36,39.00 51.88,37.98 53.42,37.02 54.96,36.09 56.42,35.20 57.88,34.33 59.36,33.49 60.91,32.70 62.49,31.93 64.07,31.17 65.66,30.44 67.24,29.72 68.86,29.04 70.57,28.41 72.31,27.82 74.04,27.26 75.73,26.76 77.41,26.29 79.08,25.81 80.69,25.29 82.29,24.75 83.88,24.24 85.42,23.80 86.96,23.39 88.50,23.01 90.03,22.65 91.55,22.32 93.09,22.04 94.67,21.83 96.26,21.67 97.83,21.56 99.25,21.50 100.65,21.48 102.04,21.46 103.42,21.51 104.79,21.55 106.17,21.59 107.62,21.60 109.08,21.60 110.55,21.63 112.02,21.68 113.50,21.77 114.97,21.92 116.44,22.17 117.90,22.48 119.37,22.84 120.87,23.25 122.38,23.72 123.89,24.18 125.40,24.62 126.92,25.07 128.46,25.53 130.15,26.06 131.87,26.61 133.54,27.22 135.01,27.89 136.44,28.60 " style="fill:none;stroke:#b9e5fb;stroke-width:2" /><circle cx="172.18" cy="41.98" r="8" style="fill:#FFFFFF"></circle><polygon stroke="#1E1E1E" stroke-width="2" fill="#1E1E1E"
        points="172.18 40.48 170.18 43.98 174.18 43.98"></polygon></svg>